<?xml version="1.0" encoding="UTF-8" standalone="no"?>
<svg
   id="Capa_1"
   data-name="Capa 1"
   viewBox="0 0 322.5426 322.5426"
   version="1.1"
   width="1em"
   height="1em"
   xmlns="http://www.w3.org/2000/svg">
  <defs
     id="defs4">
    <style
       id="style2">.cls-1{fill:currentColor;}</style>
  </defs>
  <path
     class="cls-1"
     d="m 205.01669,58.44 c 7.37,15.9 8.53,43.08 -6.22,56.18 -25,-95.3 -87.38,-114.62 -87.38,-114.62 7.37,48.81 -26.689999,102.68 -59.539999,143 -1.15,-19.32 -2.25,-32.91 -12.49,-51.62 -2.25,35.71 -29.4900003,64.66 -36.8600003,100.37 -3.52000001,17 -3.52000001,30.4 1,46.77 13.4400003,48.58 64.1400003,69.71 73.2800003,73.51 a 137.59,137.59 0 0 0 54.609999,10.5 11.84,11.84 0 0 1 -3.31,-2.13 l -4.21,-3.83 C 80.246691,276.99 51.426691,250.88 51.426691,218.84 a 46.17,46.17 0 0 1 46.62,-46.7 50.75,50.75 0 0 1 38.139999,17.76 50.75,50.75 0 0 1 38.14,-17.76 46.17,46.17 0 0 1 46.62,46.62 c 0,32 -28.82,58.15 -72.47,97.81 l -4.18,3.78 a 11.55,11.55 0 0 1 -2.3,1.62 146.65,146.65 0 0 0 43.15,-10 c 4.51,-1.86 65.71,-28.43 82.9,-94.27 15.05,-57.66 -9.92,-121.56 -63.03,-159.26 z"
     id="path6" />
</svg>
