<svg id="Capa_1" data-name="Capa 1" xmlns="http://www.w3.org/2000/svg" viewBox="0 0 500 500.22"><defs><style>.cls-1{fill:currentColor;}</style></defs><path class="cls-1" d="M318.83,147.3c7.37,15.9,8.53,43.08-6.22,56.18-25-95.3-87.38-114.62-87.38-114.62,7.37,48.81-26.69,102.68-59.54,143-1.15-19.32-2.25-32.91-12.49-51.62-2.25,35.71-29.49,64.66-36.86,100.37-3.52,17-3.52,30.4,1,46.77,13.44,48.58,64.14,69.71,73.28,73.51a137.59,137.59,0,0,0,54.61,10.5,11.84,11.84,0,0,1-3.31-2.13l-4.21-3.83c-43.65-39.58-72.47-65.69-72.47-97.73A46.17,46.17,0,0,1,211.86,261,50.75,50.75,0,0,1,250,278.76,50.75,50.75,0,0,1,288.14,261a46.17,46.17,0,0,1,46.62,46.62c0,32-28.82,58.15-72.47,97.81l-4.18,3.78a11.55,11.55,0,0,1-2.3,1.62,146.65,146.65,0,0,0,43.15-10c4.51-1.86,65.71-28.43,82.9-94.27C396.91,248.9,371.94,185,318.83,147.3Z"/></svg>