<svg xmlns:xlink="http://www.w3.org/1999/xlink" xmlns="http://www.w3.org/2000/svg" class="product-badges-module--productBadgeIcon--32dBw" width="500" height="581.6326530612245" viewBox="0 0 147 171" version="1.1"><title>Group 6 Copy 2</title><desc>Created with Sketch.</desc><defs><linearGradient x1="83.2844857%" y1="50%" x2="24.0869303%" y2="34.9172247%" id="pohlinearGradient-1"><stop stop-color="#FF9900" offset="0%"></stop><stop stop-color="#FFC700" offset="100%"></stop></linearGradient><linearGradient x1="83.2844857%" y1="50%" x2="24.0869303%" y2="34.9172247%" id="pohlinearGradient-1"><stop stop-color="#FF9900" offset="0%"></stop><stop stop-color="#FFC700" offset="100%"></stop></linearGradient></defs><g id="Logos,-Icons,-Illustrations" stroke="none" stroke-width="1" fill="none" fill-rule="evenodd"><g id="Artboard" transform="translate(-122.000000, -98.000000)" fill="none"><g id="Group-2" transform="translate(67.000000, 98.000000)" fill="none"><g id="Group-6-Copy-2" transform="translate(55.000000, 0.000000)" fill="none"><g id="Group" fill="none"><path d="M136.04781,114.982742 C137.48752,117.508093 137.270467,119.928627 134.68528,123.554166 C134.077955,124.405896 133.921312,125.169892 134.063076,126.331206 L134.076782,126.437888 C134.123174,126.78235 134.177201,127.079644 134.291432,127.609993 L134.55786,128.817378 L134.642428,129.215358 C134.817535,130.059084 134.909345,130.648682 134.961408,131.324538 L134.974321,131.50616 C135.065795,132.904883 134.910911,134.227884 134.442992,135.545043 C133.428367,138.401135 131.015636,140.97861 126.888824,143.550772 L126.56378,143.751195 C124.556582,144.975713 122.418226,145.88779 120.099261,146.556746 L119.738594,146.659185 C117.161475,147.379263 115.140664,147.679596 110.834017,148.105664 L109.287963,148.257025 C104.680499,148.721904 102.739661,149.178881 101.187513,150.289835 L101.126015,150.334504 C99.2698513,151.702627 98.2586752,154.272087 98.2160422,158.998346 L98.2139835,159.448983 C98.1735347,163.651047 96.2531669,166.903193 92.6297937,168.836923 C89.3386988,170.593323 84.7106555,171.237348 78.7001738,170.888105 C67.2576716,170.223231 50.3460816,165.904545 27.8575975,157.943628 L25.1604739,156.988847 L26.3083713,154.361217 C32.3258503,140.586717 29.7480878,124.307605 18.3179704,105.33956 L15.0043944,99.8308186 C11.7040878,94.3264805 10.3732786,92.0199744 8.74033273,88.9878733 L8.17471378,87.9313326 L7.86497111,87.3450218 C5.00560161,81.9007406 3.02771246,77.2313796 1.74166807,72.6844645 C-2.49898548,57.6912872 0.837815924,43.3361738 13.7852292,23.434365 C29.7316894,-1.07735755 58.9838319,-6.2673803 100.84251,7.46464357 C122.82584,14.8957103 133.92114,32.2053902 133.92114,58.7744667 L133.92114,59.384842 L133.656267,59.9343652 C130.783634,65.8941143 130.783634,70.768569 133.485025,74.8941625 C134.389291,76.2751661 135.476406,77.750286 137.032464,79.740054 L137.608799,80.4735485 L139.870916,83.3321209 C142.227186,86.3225881 143.176235,87.6099026 144.198965,89.2334944 L144.471886,89.6719427 L144.627671,89.9286602 C146.51744,93.078261 147.23416,95.6180992 146.310267,97.9667176 C145.687905,99.5488167 144.457784,100.727792 142.756792,101.66728 C141.58105,102.316663 140.250033,102.82583 138.44027,103.383915 L138.033827,103.506864 C137.454424,103.680373 136.567516,103.94169 136.083899,104.085314 L135.668559,104.210418 L135.441284,104.281214 C134.99978,104.420308 134.635933,104.544643 134.338635,104.65832 L134.460253,104.835358 C134.576897,105.003295 134.716824,105.200118 134.884105,105.431397 L135.15838,105.80869 L135.334099,106.052989 C136.214673,107.287728 136.677706,108.111195 136.991457,109.203263 C137.503288,110.98478 137.226408,112.781367 136.089295,114.439979 L136.021414,114.537385 C135.996852,114.572062 135.974248,114.604943 135.953518,114.636012 L135.896871,114.723769 L136.04781,114.982742 Z M128.597987,57.4626428 C128.252137,33.8447043 118.500465,19.0577814 99.168117,12.5227208 C59.3728038,-0.532295417 32.6357595,4.21148935 18.2352451,26.346898 C6.06217736,45.05844 3.07997131,57.8880635 6.85355555,71.2298791 C8.04862497,75.4551447 9.93578032,79.8837179 12.7192317,85.1515491 L13.2425924,86.1332271 C15.0386555,89.4802308 16.3901036,91.8131147 20.3791196,98.4519759 L22.8654687,102.58267 C34.4215948,121.759824 37.6173117,138.895265 32.2367518,153.834239 C52.9875618,161.055566 68.6096121,164.963192 79.0074801,165.567367 L79.4145308,165.589454 C84.3305819,165.837055 87.9176751,165.31457 90.1338634,164.131829 C92.0087934,163.131212 92.8729605,161.683006 92.9003491,159.424816 L92.9015241,159.117291 C92.9346535,152.677855 94.6085876,148.451211 98.1010082,145.951502 C99.6171613,144.866312 101.394319,144.161766 103.558889,143.689046 L103.762387,143.645347 C105.081681,143.366931 106.349783,143.195639 108.500412,142.97911 L110.463619,142.786714 C114.368321,142.397905 116.163094,142.126782 118.353963,141.513358 L118.630582,141.434715 C120.512839,140.891737 122.217432,140.164674 123.802534,139.197661 L124.083664,139.024392 C127.270817,137.039565 128.881561,135.321458 129.437639,133.75614 C129.812985,132.699568 129.770949,131.805083 129.312665,129.70937 L129.124345,128.859073 L129.075595,128.633359 C128.945068,128.022282 128.876787,127.639863 128.810998,127.151379 L128.793828,127.018977 C128.497499,124.641532 128.890649,122.574697 130.284804,120.56531 L130.443254,120.34068 C130.888535,119.705915 131.200616,119.171043 131.39564,118.732158 C131.530133,118.429496 131.593052,118.212308 131.610305,118.066279 L131.613312,118.036071 C131.618689,117.968767 131.614982,117.942508 131.505484,117.750048 L131.281484,117.36523 L131.193115,117.210529 C130.173302,115.392798 130.205612,113.600224 131.622205,111.547172 L131.709293,111.422566 L131.746753,111.366169 C132.080065,110.844852 131.951055,110.450852 130.893727,108.988522 L130.314801,108.192427 L130.126732,107.929786 C129.933558,107.656998 129.822,107.486953 129.684737,107.26263 L129.525786,106.997669 C129.067687,106.212485 128.768737,105.45955 128.654625,104.636896 C128.623543,104.412816 128.607526,104.187471 128.607526,103.961115 C128.607526,102.267997 129.589432,101.122178 131.066908,100.305768 C131.81992,99.8896761 132.690418,99.5572553 133.953774,99.1635473 L134.422052,99.0205938 C134.839941,98.8958816 135.711703,98.6391272 136.326804,98.4557913 L136.878751,98.289588 L137.134629,98.2096953 C139.780174,97.3732119 141.130569,96.6128591 141.367492,96.0105815 C141.375098,95.9912463 141.383391,95.9379853 141.381254,95.8319487 C141.373916,95.6455371 141.328285,95.3973421 141.234646,95.0926583 C141.022098,94.4010661 140.596898,93.528365 139.958498,92.4848322 L139.760947,92.1664879 C138.864632,90.7377724 138.000367,89.5583359 135.857593,86.8345404 L133.441431,83.7800978 L132.969506,83.1800374 L132.563214,82.6596983 C131.153268,80.8469839 130.105932,79.4226433 129.198925,78.0555137 L129.043641,77.8199196 C125.368999,72.2079675 125.240979,65.633982 128.505622,58.4004414 L128.605587,58.1810445 L128.597987,57.4626428 Z" id="Path-109" fill="#FF6800" fill-rule="nonzero"></path><path d="M20.5917195,103.961115 C2.83187098,74.4890108 -6.74999376,59.8759799 16.0102371,24.8906315 C31.1837244,1.5670659 59.1783178,-3.39983786 99.9940174,9.98992023 C120.840894,17.0368293 131.264333,33.2983448 131.264333,58.7744667 C128.009996,65.5261248 128.009996,71.3869829 131.264333,76.357041 C136.145838,83.8121283 145.516889,92.7230023 143.838879,96.9886495 C142.16087,101.254297 131.264333,101.254297 131.264333,103.961115 C131.264333,106.667933 136.446703,109.335601 133.855518,112.994064 C131.264333,116.652526 136.944956,115.804275 132.524284,122.00395 C128.103613,128.203626 138.669094,133.247146 125.183157,141.474428 C111.69722,149.70171 95.5578291,139.542643 95.5578291,159.313103 C95.5578291,172.49341 73.2858262,171.19928 28.7418204,155.430714 C35.1483189,140.765718 32.4316186,123.609184 20.5917195,103.961115 Z" id="Path-109" fill="#FFFCF0"></path><path d="M7.48736497,55.3633439 C10.588486,35.0730405 16.7746256,23.4585735 26.045784,20.5199431 C39.9525214,16.1119974 79.7838553,-0.499935437 101.410037,17.9421749 C115.827492,30.2369151 123.533112,46.0990847 124.526899,65.5286837 C122.714182,72.9637813 118.217612,81.7140614 111.037188,91.779524 C100.266554,106.877718 97.1398994,103.663376 97.1398994,97.4366085 C97.1398994,91.209841 77.3666861,107.624764 71.6473841,85.2310087 C67.834516,70.3018382 60.4892812,64.9236019 49.6116798,69.0962997 C30.8178279,71.0583308 19.0899062,69.8691255 14.4279145,65.5286837 C9.76592277,61.188242 7.45240627,57.7997954 7.48736497,55.3633439 Z" id="Path-111" fill="url(&quot;#pohlinearGradient-1&quot;)" transform="translate(66.007132, 56.030940) scale(-1, 1) translate(-66.007132, -56.030940) "></path><g id="ethereum-white" transform="translate(44.682662, 37.792125)" fill="none"><g id="Group-170" fill="none"><path d="M21.1336914,44.8940868 C34.1873971,44.8940868 44.7664573,34.2830824 44.7664573,21.1975062 C44.7664573,8.11193001 34.1873971,-2.49907442 21.1336914,-2.49907442 C8.07998574,-2.49907442 -2.49907442,8.11193001 -2.49907442,21.1975062 C-2.49907442,34.2830824 8.07998574,44.8940868 21.1336914,44.8940868 Z M21.1336914,42.3950124 C9.46187595,42.3950124 -8.8817842e-16,32.9045656 -8.8817842e-16,21.1975062 C-8.8817842e-16,9.4904468 9.46187595,-8.8817842e-16 21.1336914,-8.8817842e-16 C32.8055069,-8.8817842e-16 42.2673829,9.4904468 42.2673829,21.1975062 C42.2673829,32.9045656 32.8055069,42.3950124 21.1336914,42.3950124 Z" id="Oval" fill="#FFFFFF" fill-rule="nonzero"></path><ellipse id="Oval" fill="#FF6800" cx="21.1336914" cy="21.1975062" rx="21.1336914" ry="21.1975062"></ellipse><path d="M28.5002925,21.4675476 L21.1361155,26.0892384 L13.7670904,21.4675476 L21.1361155,8.47900249 L28.5002925,21.4675476 Z M21.1336914,27.5838397 L13.7670904,23.0144353 L21.1336914,33.9160099 L28.5002925,23.0144353 L21.1336914,27.5838397 L21.1336914,27.5838397 Z" id="Shape" fill="#FFFFFF" fill-rule="nonzero"></path></g></g><path d="M22.625195,85.2952547 L24.0244559,87.1435584 L24.5064321,86.0822567 C27.5151439,79.4571337 30.1692637,78.7073782 33.3682234,83.4021611 L33.5118275,83.6160124 C37.5697036,89.745829 42.2861226,89.6423371 46.9767786,83.4107082 L47.4183102,82.8114395 L46.3933254,80.628246 L45.7020871,81.5721786 C41.7651529,86.9483283 38.491366,87.1745684 35.2004245,82.3621295 L35.0436973,82.1291577 C30.9004616,75.8703973 26.5604872,76.8433478 22.9318818,84.623868 L22.625195,85.2952547 Z M24.09664,85.4130745 L24.2328212,85.1186038 L23.9816775,84.7868645 L24.0519356,85.4180506 L24.09664,85.4130745 Z M24.09664,85.4130745 L24.4278409,85.3762081 L24.2328212,85.1186038 L24.5094446,84.5422908 C27.547897,78.3738875 30.446345,77.8468973 33.7361967,82.6725058 L33.8860069,82.895537 C37.7918205,88.7956482 42.2786904,88.596972 46.8222331,82.3924573 L45.6337805,82.2773351 L45.8099025,82.6524707 C41.7679054,87.9918134 38.2662226,88.1125676 34.8329569,83.0925662 L34.6695179,82.8496331 C30.7226486,76.8875032 26.7007453,77.8927614 23.2423078,85.5081714 L24.0519356,85.4180506 L24.0602687,85.4929131 L24.09664,85.4130745 Z M45.9865055,83.0286311 L46.0548121,82.3234746 L45.8099025,82.6524707 L45.9865055,83.0286311 Z" id="Path-110" fill="#FFFFFF" fill-rule="nonzero"></path><path d="M18.1441423,62.789578 C21.1930424,56.0759613 23.9444711,55.3287374 27.2088398,60.1629454 L27.307918,60.3111446 C31.3865607,66.4723312 36.1014023,66.2814855 40.8218103,59.8354493 L41.0345273,59.5449698 L40.0964386,57.546863 L39.495784,58.3670975 C35.5013596,63.821754 32.136472,64.0235273 28.7895722,59.0722562 L28.6881559,58.9206405 C24.5374348,52.6505727 20.228644,53.7056813 16.5989832,61.6981214 L16.4494767,62.0273318 L17.7250942,63.7123134 L18.1441423,62.789578 Z M17.629373,61.582916 L17.6979789,62.2002343 L17.7733724,62.0353086 L17.8487227,61.8726582 L17.629373,61.582916 Z M27.5770997,59.4336692 L27.6820974,59.5906691 C31.5514143,65.4356486 35.9608895,65.2403994 40.4690853,59.0841533 L39.4361542,58.9836491 L39.6346002,59.4063344 C35.5198778,64.8645919 31.9174364,64.9729913 28.4199298,59.7995049 L28.3139765,59.6411159 C24.4115847,53.7461736 20.4775051,54.7294806 17.0451466,62.287465 L18.0755364,62.1722597 L17.8487227,61.8726582 C21.038553,55.0333534 24.116068,54.3116894 27.5770997,59.4336692 Z M39.7888792,59.7349451 L39.848509,59.1183935 L39.7414389,59.2635637 L39.6346002,59.4063344 L39.7888792,59.7349451 Z" id="Path-110" fill="#FFFFFF" fill-rule="nonzero"></path><path d="M27.0806747,39.5328854 C30.1295747,32.8192688 32.8810035,32.0720449 36.1453722,36.9062529 L36.2444503,37.054452 C40.3230931,43.2156386 45.0379347,43.024793 49.7583427,36.5787567 L49.9710597,36.2882773 L49.032971,34.2901705 L48.4323164,35.110405 C44.437892,40.5650615 41.0730043,40.7668348 37.7261046,35.8155637 L37.6246883,35.6639479 C33.4739672,29.3938801 29.1651764,30.4489888 25.5355156,38.4414288 L25.386009,38.7706393 L26.6616266,40.4556208 L27.0806747,39.5328854 Z M26.5659054,38.3262235 L26.6345113,38.9435418 L26.7099048,38.7786161 L26.7852551,38.6159657 L26.5659054,38.3262235 Z M36.5136321,36.1769767 L36.6186297,36.3339766 C40.4879466,42.1789561 44.8974219,41.9837068 49.4056177,35.8274607 L48.3726866,35.7269566 L48.5711326,36.1496418 C44.4564102,41.6078994 40.8539688,41.7162988 37.3564622,36.5428124 L37.2505089,36.3844234 C33.3481171,30.4894811 29.4140375,31.4727881 25.981679,39.0307725 L27.0120688,38.9155671 L26.7852551,38.6159657 C29.9750854,31.7766609 33.0526003,31.0549969 36.5136321,36.1769767 Z M48.7254116,36.4782526 L48.7850414,35.861701 L48.6779713,36.0068712 L48.5711326,36.1496418 L48.7254116,36.4782526 Z" id="Path-110" fill="#FFFFFF" fill-rule="nonzero"></path><path d="M42.1889551,22.0661219 L43.588216,23.9144256 L44.0701922,22.8531239 C47.0339978,16.3268834 49.6537174,15.501935 52.7891076,19.9664541 L53.0755876,20.3868796 C57.1334637,26.5166962 61.8498826,26.4132043 66.5405387,20.1815754 L66.9820703,19.5823067 L65.9570855,17.3991131 L65.2658472,18.3430457 C61.391404,23.6338598 58.1592229,23.9369558 54.9208858,19.3583515 L54.6074574,18.9000249 C50.4642217,12.6412645 46.1242473,13.614215 42.4956419,21.3947352 L42.1889551,22.0661219 Z M43.6604001,22.1839417 L43.7965813,21.889471 L43.5454375,21.5577316 L43.6156957,22.1889178 L43.6604001,22.1839417 Z M43.9916009,22.1470753 L43.7965813,21.889471 L44.0773273,21.3047918 C47.114279,15.1442791 50.011593,14.619947 53.2999568,19.4433729 L53.449767,19.6664041 C57.3555805,25.5665154 61.8424505,25.3678391 66.3859932,19.1633244 L65.1975406,19.0482023 L65.3736625,19.4233379 C61.3316655,24.7626806 57.8299827,24.8834348 54.396717,19.8634334 L54.233278,19.6205003 C50.2864086,13.6583704 46.2645054,14.6636285 42.8060678,22.2790385 L43.6156957,22.1889178 L43.6240288,22.2637802 L43.6604001,22.1839417 L43.9916009,22.1470753 Z M65.5502656,19.7994983 L65.6185722,19.0943418 L65.3736625,19.4233379 L65.5502656,19.7994983 Z" id="Path-110" fill="#FFFFFF" fill-rule="nonzero"></path><path d="M74.4201435,31.5383974 C77.4690436,24.8247807 80.2204723,24.0775569 83.4848411,28.9117648 L83.5839192,29.059964 C87.662562,35.2211506 92.3774035,35.0303049 97.0978115,28.5842687 L97.3105285,28.2937892 L96.3724398,26.2956824 L95.7717852,27.1159169 C91.7773609,32.5705734 88.4124732,32.7723467 85.0655734,27.8210756 L84.9641571,27.6694599 C80.8134361,21.3993921 76.5046452,22.4545007 72.8749844,30.4469408 L72.7254779,30.7761512 L74.0010955,32.4611328 L74.4201435,31.5383974 Z M73.9053742,30.3317354 L73.9739801,30.9490538 L74.0493736,30.784128 L74.1247239,30.6214776 L73.9053742,30.3317354 Z M83.8531009,28.1824886 L83.9580986,28.3394885 C87.8274155,34.184468 92.2368907,33.9892188 96.7450865,27.8329727 L95.7121554,27.7324685 L95.9106014,28.1551538 C91.795879,33.6134113 88.1934376,33.7218107 84.6959311,28.5483243 L84.5899777,28.3899353 C80.6875859,22.494993 76.7535063,23.4783 73.3211478,31.0362844 L74.3515376,30.9210791 L74.1247239,30.6214776 C77.3145543,23.7821728 80.3920692,23.0605088 83.8531009,28.1824886 Z M96.0648805,28.4837645 L96.1245102,27.8672129 L96.0174402,28.0123832 L95.9106014,28.1551538 L96.0648805,28.4837645 Z" id="Path-110" fill="#FFFFFF" fill-rule="nonzero"></path><path d="M89.9615732,51.2894908 L90.4435494,50.228189 L90.7120623,49.650589 C93.6112016,43.563156 96.2018724,42.9934533 99.3053407,47.5480934 L99.4489448,47.7619447 C103.563974,53.9780968 108.356227,53.7841177 113.112075,47.2896856 L113.355428,46.9573719 L112.330443,44.7741783 L111.639204,45.7181109 C107.70227,51.0942606 104.428483,51.3205007 101.137542,46.5080619 L100.980815,46.27509 C96.837579,40.0163297 92.4976045,40.9892802 88.8689991,48.7698004 L88.5623124,49.441187 L89.9615732,51.2894908 Z M90.0337573,49.5590068 L90.1699385,49.2645362 L89.9187948,48.9327968 L89.9890529,49.5639829 L90.0337573,49.5590068 Z M90.3649582,49.5221404 L90.1699385,49.2645362 L90.4465619,48.6882231 C93.4850143,42.5198198 96.3834623,41.9928297 99.6733141,46.8184381 L99.8231242,47.0414693 C103.728938,52.9415806 108.215808,52.7429043 112.75935,46.5383896 L111.570898,46.4232674 L111.74702,46.7984031 L111.363686,47.2911363 C107.482763,52.1402318 104.094347,52.0991348 100.770074,47.2384985 L100.606635,46.9955655 C96.6597659,41.0334355 92.6378626,42.0386937 89.1794251,49.6541037 L89.9890529,49.5639829 L89.997386,49.6388454 L90.0337573,49.5590068 L90.3649582,49.5221404 Z M111.923623,47.1745634 L111.991929,46.4694069 L111.74702,46.7984031 L111.923623,47.1745634 Z" id="Path-110" fill="#FFFFFF" fill-rule="nonzero"></path></g></g></g></g></g></svg>